<?xml version="1.0" encoding="UTF-8"?>
<svg width="24px" height="24px" viewBox="0 0 24 24" version="1.1" xmlns="http://www.w3.org/2000/svg" xmlns:xlink="http://www.w3.org/1999/xlink">
    <!-- Generator: Sketch 58 (84663) - https://sketch.com -->
    <title>Group</title>
    <desc>Created with Sketch.</desc>
    <g id="Page-1" stroke="none" stroke-width="1" fill="none" fill-rule="evenodd" stroke-linecap="round" stroke-linejoin="round">
        <g id="User-Careers---User-Profile_-Dashboard_Lab-Progress" transform="translate(-292.000000, -1817.000000)" stroke="#A4B1CD" stroke-width="1.2">
            <g id="Group-18-Copy-5" transform="translate(278.000000, 1798.000000)">
                <g id="Group" transform="translate(14.000000, 19.000000)">
                    <g id="touch-id-search">
                        <path d="M12,1.68288 C9.67921198,0.396568617 6.81984276,0.396734126 4.49921634,1.68331417 C2.17858992,2.96989421 0.749353415,5.34737746 0.749999562,7.92" id="Shape"></path>
                        <path d="M15.75,7.92 C15.7513078,6.92894218 15.5388481,5.94835916 15.126,5.04" id="Shape"></path>
                        <path d="M8.25,22.32 C8.75374776,22.3200767 9.25624327,22.2718372 9.75,22.176" id="Shape"></path>
                        <path d="M0.749999694,12.24 L0.749999694,15.12 C0.749150329,17.9836241 2.51608859,20.5755104 5.24999969,21.72096" id="Shape"></path>
                        <path d="M12.7500002,7.92 C12.7503165,6.37646077 11.8927463,4.95003369 10.5003836,4.17813252 C9.1080208,3.40623136 7.39244187,3.40615034 6,4.17792" id="Shape"></path>
                        <path d="M3.75,7.92 L3.75,15.12 C3.75,17.5058701 5.76471863,19.44 8.25,19.44" id="Shape"></path>
                        <path d="M9.75,9.36 L9.75,7.92 C9.75,7.12470996 9.07842712,6.48 8.25,6.48 C7.42157288,6.48 6.75,7.12470996 6.75,7.92 L6.75,10.8" id="Shape"></path>
                        <path d="M6.75,15.12 C6.75,15.91529 7.42157288,16.56 8.25,16.56" id="Shape"></path>
                        <ellipse id="Oval" cx="15.75" cy="15.12" rx="5.25" ry="5.04"></ellipse>
                        <path d="M23.25,22.32 L19.462,18.68352" id="Shape"></path>
                    </g>
                </g>
            </g>
        </g>
    </g>
</svg>